<svg xmlns="http://www.w3.org/2000/svg" version="1.1" xmlns:xlink="http://www.w3.org/1999/xlink" xmlns:svgjs="http://svgjs.dev/svgjs" width="1000" height="1000" viewBox="0 0 1000 1000"><rect width="1000" height="1000" fill="#2ce1d7"></rect><g transform="matrix(0.7,0,0,0.7,150.0000000000001,106.25)"><svg viewBox="0 0 320 360" data-background-color="#2ce1d7" preserveAspectRatio="xMidYMid meet" height="1125" width="1000" xmlns="http://www.w3.org/2000/svg" xmlns:xlink="http://www.w3.org/1999/xlink"><g id="tight-bounds" transform="matrix(1,0,0,1,0,0)"><svg viewBox="0 0 320 360" height="360" width="320"><g><svg></svg></g><g><svg viewBox="0 0 320 360" height="360" width="320"><g><path xmlns="http://www.w3.org/2000/svg" d="M20.961 227.22l3.726 4.658-1.863-6.056c-0.466-2.795-3.726 0.466-1.863 1.398M25.153 224.425c1.397 2.329 2.795 4.658 2.795 6.987 0 3.261 2.795 4.658 5.123 5.589-3.261-3.726-5.124-13.974-7.918-12.576M204.017 26.929c7.918 0 15.371-0.932 23.756 0.931 20.495 5.124 37.729 15.371 49.374 29.811l32.606 52.169c1.397 13.042 4.192 27.482 3.726 43.319 3.261 0 2.795-4.658 6.521-5.59-3.726 9.316-5.59 20.961-6.521 34.469-2.329-7.453 0-18.632 0.466-24.687-3.261 5.124-5.124 1.397-5.124-0.932 0.466-3.726-1.397-3.261-2.795-4.658-5.124-4.658-8.384-9.782-12.11-17.7 2.329-6.055 2.795-14.905-4.658-19.563-2.329-1.397-5.124-3.726-6.521-7.453-1.863-5.124-5.124-11.179-4.193-19.097 0.466-2.329-6.987 5.124-11.179 1.863-18.166-12.576-36.332-27.016-58.224-39.127-11.645 0-20.029-4.192-24.221-9.316-3.726-4.658-0.932-10.713 4.658-11.179 3.261 0 6.987-0.932 9.782 0.932 0.466-1.863 2.329-4.192 4.657-4.192M157.904 16.215l0.932 0.466c4.658 0.932 6.987 7.453 12.11 5.124 0 3.261 0.466 6.521-0.466 8.85-1.397 3.726-5.59 3.726-8.85 3.726-31.208-1.863-49.374 11.179-68.471 22.358-5.124 3.261-10.713 5.59-14.906 9.782-20.029 18.632-41.921 35.866-47.045 70.335l-4.192 38.195c-0.466 4.192-5.124 8.384-4.192 13.508l3.26 22.824c-3.261-3.261-5.124 0.932-4.192 2.795 0.466 1.397 2.329 6.055 5.124 1.863 3.726 6.987 7.453 20.495 12.576 26.55 15.837 18.632 36.332 35.4 53.101 52.169 4.192-0.932 7.453-0.932 8.384-3.727 1.397 2.795-1.397 5.59-3.726 6.056 7.453 4.658 15.837 8.85 27.016 9.781 14.44 0.932 27.948 3.261 40.524 6.522 6.521-1.863 13.042-2.795 20.029-3.261 2.329 0 3.726-3.726 6.521-4.658l0.466-4.658c2.795 4.192 2.329-1.397 0.466-4.192 3.261 2.795 4.192 5.124 5.589 6.987 0-1.397 3.726-6.521 3.727-0.466l0.931-6.055c1.397-0.932 1.863 5.124 3.261 0.931 1.397-4.192 4.192-0.932 6.987-2.329-0.932 1.863-0.466 5.59 2.794 3.261l3.727-3.261c2.329 5.59 6.055 3.261 7.918 2.329 20.495-13.042 40.99-28.413 60.553-43.784l-0.466 6.055 2.329-7.453c2.329 2.329 4.192 0.466 5.124-0.931 2.795-4.658 6.521-9.316 12.577-13.508-7.453 20.029-16.303 35.866-27.482 48.908l-4.658 5.59c0 3.261-0.932 7.453-4.658 7.918-1.863 0.466-5.59-0.932-8.384 1.863-1.397 1.863 3.261 5.59-0.466 2.795-3.261-2.329-6.521 0-10.248 0.932-2.795 0.932 1.863 3.726 2.795 5.589 0.932 1.863 1.863 3.726 1.398 6.056l-5.124-5.59c-6.055 3.261-9.782 9.316-14.906 13.974-2.329 1.863-1.397 5.124-1.397 7.918-3.261 0-6.987-0.932-8.85 0.932-1.397 1.863-0.932 4.658-0.932 7.453-4.658-0.466-5.124-7.453-9.315-6.056-4.192 0.932-8.85 1.397-12.577 3.727 2.795 5.59-4.658 2.329-3.726 3.26-6.987-4.192-13.042-7.453-20.495-4.658-15.837-5.124-35.4-2.795-49.84-0.931 0-2.329 0.466-4.658-0.466-5.124-0.932 2.329-3.726 1.397-3.26 1.397-8.85-6.055-17.7-9.782-27.016-14.905-8.384 0.932-16.303-3.261-18.632-5.59-6.521-6.055-13.974-2.795-20.029-4.192-13.042-3.261-17.7-16.769-19.098-26.084-0.932-4.658-4.658-6.521-6.055-6.056-6.055-19.563-15.371-37.263-22.824-55.429-1.863-4.658-1.397-9.316-1.397-14.44 2.329 0.932 4.658 0.466 4.192-2.794-2.329-15.371-7.918-27.016-13.974-38.195 3.261-15.837 3.726-34.469 11.179-48.443 6.521-12.576 18.632-19.098 27.016-29.811 2.795-3.726 2.795-8.85 5.59-12.11 9.316-9.316 18.632-19.098 28.879-27.482 4.658-3.726 10.247 0 17.234-1.397 2.329-8.384 11.645-15.837 20.495-13.508 3.726 0.932 11.179-8.85 13.508-9.782 3.726-1.397 1.863 3.726 1.863 6.987 8.85-6.987 20.961-10.713 32.14-14.906" fill="#ffffff" fill-rule="nonzero" stroke="none" stroke-width="1" stroke-linecap="butt" stroke-linejoin="miter" stroke-miterlimit="10" stroke-dasharray="" stroke-dashoffset="0" font-family="none" font-weight="none" font-size="none" text-anchor="none" style="mix-blend-mode: normal" data-fill-palette-color="tertiary"></path></g><g transform="matrix(1,0,0,1,110.98963048529154,90)"><svg viewBox="0 0 98.02073902941693 180" height="180" width="98.02073902941693"><g><svg viewBox="0 0 150.1060070671378 275.64657785304115" height="180" width="98.02073902941693"><g transform="matrix(1,0,0,1,0,95.64657785304117)"><svg viewBox="0 0 150.1060070671378 180" height="180" width="150.1060070671378"><g><svg viewBox="0 0 150.1060070671378 180" height="180" width="150.1060070671378"><g><svg viewBox="0 0 150.1060070671378 180" height="180" width="150.1060070671378"><g transform="matrix(1,0,0,1,0,0)"><svg width="150.1060070671378" viewBox="1.350000023841858 -36.5 35.400001525878906 42.45000076293945" height="180" data-palette-color="#ffffff"><path d="M19.45 5.95L3.65 5.95Q2.45 5.95 1.9 5.4 1.35 4.85 1.35 3.65L1.35 3.65 1.35-2.2Q1.35-2.85 1.53-3.3 1.7-3.75 2.05-4.05L2.05-4.05 7.05-8.25Q4.4-9.05 2.88-10.98 1.35-12.9 1.35-16.5L1.35-16.5 1.35-21.75Q1.35-24 2.1-25.75 2.85-27.5 4.25-28.7L4.25-28.7 10.75-34.15Q12.1-35.25 14.1-35.88 16.1-36.5 18.65-36.5L18.65-36.5 32.65-36.5Q33.85-36.5 34.4-35.95 34.95-35.4 34.95-34.2L34.95-34.2 34.95-28.25Q34.95-27.6 34.77-27.15 34.6-26.7 34.25-26.4L34.25-26.4 29.75-22.65Q32.9-21.95 34.83-20.03 36.75-18.1 36.75-14.05L36.75-14.05 36.75-8.8Q36.75-6.55 36-4.8 35.25-3.05 33.8-1.85L33.8-1.85 27.35 3.55Q25.95 4.7 23.95 5.33 21.95 5.95 19.45 5.95L19.45 5.95ZM10.1 0L25.9 0Q30.7 0 33.48-2.27 36.25-4.55 36.25-8.8L36.25-8.8 36.25-14.05Q36.25-18.25 34.1-20.05 31.95-21.85 28.45-22.35L28.45-22.35 21-23.35Q20.35-23.4 20-23.85 19.65-24.3 19.65-24.95L19.65-24.95Q19.65-25.6 20-26.03 20.35-26.45 21-26.45L21-26.45 32.65-26.45Q33.6-26.45 34.02-26.88 34.45-27.3 34.45-28.25L34.45-28.25 34.45-34.2Q34.45-35.15 34.02-35.58 33.6-36 32.65-36L32.65-36 18.65-36Q13.8-36 11.05-33.73 8.3-31.45 8.3-27.2L8.3-27.2 8.3-21.95Q8.3-17.75 10.43-15.95 12.55-14.15 16.05-13.65L16.05-13.65 23.55-12.6Q24.2-12.55 24.53-12.15 24.85-11.75 24.85-10.9L24.85-10.9Q24.85-10.3 24.53-9.88 24.2-9.45 23.55-9.45L23.55-9.45 10.1-9.45Q9.15-9.45 8.72-9.03 8.3-8.6 8.3-7.65L8.3-7.65 8.3-1.8Q8.3-0.85 8.72-0.43 9.15 0 10.1 0L10.1 0ZM18.85-31.5L29.95-31.5 29.95-31 18.85-31Q16.75-31 15.5-29.85 14.25-28.7 14.25-26.95L14.25-26.95 14.25-22.85Q14.25-21.1 14.95-20.4 15.65-19.7 16.8-19.5L16.8-19.5 27.35-17.35Q28.85-17.05 29.83-16.05 30.8-15.05 30.8-12.45L30.8-12.45 30.8-9.55Q30.8-7.35 29.3-5.93 27.8-4.5 25.25-4.5L25.25-4.5 12.8-4.5 12.8-5 25.25-5Q27.55-5 28.93-6.28 30.3-7.55 30.3-9.55L30.3-9.55 30.3-12.45Q30.3-14.8 29.48-15.68 28.65-16.55 27.25-16.85L27.25-16.85 16.7-19Q15.4-19.25 14.58-20.03 13.75-20.8 13.75-22.85L13.75-22.85 13.75-26.95Q13.75-28.95 15.15-30.23 16.55-31.5 18.85-31.5L18.85-31.5Z" opacity="1" transform="matrix(1,0,0,1,0,0)" fill="#ffffff" class="undefined-text-0" data-fill-palette-color="primary" id="text-0"></path></svg></g></svg></g></svg></g></svg></g><g transform="matrix(1,0,0,1,28.67024734982332,0)"><svg viewBox="0 0 92.76551236749116 81.24657785304116" height="81.24657785304116" width="92.76551236749116"><g><svg xmlns="http://www.w3.org/2000/svg" xmlns:xlink="http://www.w3.org/1999/xlink" version="1.1" x="0" y="0" viewBox="0 7.979142189025879 127.90289306640625 112.02085876464844" style="enable-background:new 0 0 128 128;" xml:space="preserve" height="81.24657785304116" width="92.76551236749116" class="icon-icon-0" data-fill-palette-color="accent" id="icon-0"><path d="M121.9 64.3C119.1 45.1 107 28.5 89.7 20c-11.9-14.2-33-16.1-47.2-4.2-1.5 1.3-2.9 2.7-4.2 4.2C21 28.5 8.9 45.1 6.1 64.3 2.5 65.4 0 68.7 0 72.5v15.3c0 4.8 3.9 8.6 8.6 8.6 0 0 2.5 0 2.5 0 0.8 4.2 4.4 7.3 8.7 7.3H25c2.2 0 4-1.8 4-4V60.6c0-2.2-1.8-4-4-4h-5.1c-4.3 0-7.9 3.1-8.7 7.3-0.1 0-0.9 0-0.9 0C12.7 49.1 21 35.9 33.4 27.5c-2.4 4.9-3.6 10.3-3.6 15.8 0 7.3 2.2 14.4 6.5 20.3 0.8 1.2 1.7 2.4 2.6 3.6 4.5 6.2 8.7 12 10.3 19.4 0.7 4.4 1.1 8.8 1.3 13.3H50c-1.1 0-2 0.9-2 2s0.9 2 2 2h28c1.1 0 2-0.9 2-2s-0.9-2-2-2h-0.5c0.2-5 0.8-11.2 0.9-12 1-7.7 5.8-14.8 10.5-21.7 1.3-1.9 2.5-3.6 3.6-5.4 2.6-4.3 5.7-10.3 5.7-17.5 0-5.5-1.2-10.9-3.6-15.8 12.4 8.4 20.7 21.6 23.2 36.4 0 0-0.9 0-0.9 0-0.8-4.2-4.4-7.3-8.7-7.3H103c-2.2 0-4 1.8-4 4v39.1c0 2.2 1.8 4 4 4h5.1c4.3 0 7.9-3.1 8.7-7.3 0.1 0 2.5 0 2.5 0 4.8 0 8.6-3.9 8.6-8.6V72.5C128 68.7 125.5 65.4 121.9 64.3zM15 65.5c0-2.7 2.2-4.9 4.9-4.9H25l0 39.1h-5.1c-2.7 0-4.9-2.2-4.9-4.9V65.5zM11 67.9v24.6H8.6c-2.6 0-4.6-2.1-4.6-4.6V72.5c0-2.6 2.1-4.6 4.6-4.6H11zM66 100h-4V73.9h4V100zM89.2 58.7c-1.1 1.7-2.3 3.5-3.5 5.3-4.9 7.3-10 14.8-11.2 23.4-0.1 0.9-0.7 7.4-0.9 12.5H70V73.9h1c1.1 0 2-0.9 2-2s-0.9-2-2-2H57c-1.1 0-2 0.9-2 2s0.9 2 2 2h1V100h-3.6c-0.2-4.7-0.7-9.5-1.4-14.1-1.8-8.3-6.5-14.7-11-20.9-0.8-1.2-1.7-2.3-2.5-3.5-3.7-5.3-5.7-11.6-5.7-18C33.8 26.1 47.3 12 64 12s30.2 14.1 30.2 31.3C94.2 49.6 91.5 54.9 89.2 58.7zM113 94.8c0 2.7-2.2 4.9-4.9 4.9H103V60.6h5.1c2.7 0 4.9 2.2 4.9 4.9V94.8zM124 87.8c0 2.6-2.1 4.6-4.6 4.6H117V67.9h2.4c2.6 0 4.6 2.1 4.6 4.6V87.8z" fill="#ffffff" data-fill-palette-color="accent"></path><path d="M76.6 49.3l-0.8 0.1c-0.3-1.1-0.9-2.2-1.6-3.1l0.5-0.6c0.5-0.6 0.4-1.6-0.2-2.1 0 0 0 0 0 0l0 0c-0.6-0.5-1.5-0.4-2.1 0.2L72 44.4c-1-0.6-2.1-0.9-3.3-1l-0.1-0.8c-0.1-0.8-0.8-1.4-1.6-1.3l0 0c-0.8 0.1-1.4 0.8-1.3 1.6l0.1 0.7c-1.1 0.3-2.2 0.9-3.1 1.6l-0.6-0.5c-0.6-0.5-1.5-0.4-2.1 0.2-0.5 0.6-0.4 1.6 0.2 2.1 0 0 0 0 0 0l0.6 0.5c-0.6 1-0.9 2.1-1 3.3L59 50.8c-0.8 0.1-1.4 0.8-1.3 1.6 0 0 0 0 0 0l0 0c0.1 0.8 0.8 1.4 1.6 1.3l0.7-0.1c0.3 1.1 0.9 2.2 1.6 3.1l-0.5 0.6c-0.5 0.6-0.4 1.6 0.2 2.1l0 0c0.6 0.5 1.5 0.4 2.1-0.2l0.5-0.6c1 0.6 2.1 0.9 3.3 1l0.1 0.8c0.1 0.8 0.8 1.4 1.6 1.3l0 0c0.8-0.1 1.4-0.8 1.3-1.6 0 0 0 0 0 0l-0.1-0.7c1.1-0.3 2.2-0.9 3.1-1.6l0.6 0.5c0.6 0.5 1.5 0.4 2.1-0.2 0.5-0.6 0.4-1.6-0.2-2.1 0 0 0 0 0 0l-0.6-0.5c0.6-1 0.9-2.1 1-3.3l0.7-0.1c0.8-0.1 1.4-0.8 1.3-1.6 0 0 0 0 0 0l0 0C78.1 49.8 77.4 49.2 76.6 49.3zM70.9 54.9c-1.9 1.6-4.7 1.4-6.4-0.5-1.6-1.9-1.4-4.7 0.5-6.4 1.5-1.3 3.6-1.5 5.3-0.5 2.1 1.3 2.8 4.1 1.5 6.2C71.6 54.3 71.3 54.6 70.9 54.9L70.9 54.9z" fill="#ffffff" data-fill-palette-color="accent"></path><path d="M82.3 34.6c-0.1-0.6-0.7-1-1.3-0.8l-0.5 0.1c-0.3-0.8-0.8-1.5-1.4-2.1l0.3-0.5c0.3-0.5 0.2-1.2-0.3-1.5l0 0c-0.5-0.3-1.2-0.2-1.5 0.3 0 0 0 0 0 0l-0.3 0.5c-0.8-0.3-1.6-0.5-2.5-0.5l-0.1-0.5c-0.1-0.6-0.7-1-1.3-0.8l0 0c-0.6 0.1-1 0.7-0.8 1.3l0.1 0.5c-0.8 0.3-1.5 0.8-2.1 1.4l-0.5-0.3c-0.5-0.3-1.2-0.2-1.5 0.3-0.3 0.5-0.2 1.2 0.3 1.5 0 0 0 0 0 0l0.5 0.3c-0.3 0.8-0.5 1.6-0.5 2.5l-0.5 0.1c-0.6 0.1-1 0.7-0.8 1.3l0 0c0.1 0.6 0.7 1 1.3 0.8l0.5-0.1c0.3 0.8 0.8 1.5 1.4 2.1l-0.3 0.5c-0.3 0.5-0.2 1.2 0.3 1.5 0 0 0 0 0 0l0 0c0.5 0.3 1.2 0.2 1.5-0.3l0.3-0.5c0.8 0.3 1.6 0.5 2.5 0.5l0.1 0.5c0.1 0.6 0.7 1 1.3 0.8l0 0c0.6-0.1 1-0.7 0.8-1.3 0 0 0 0 0 0l-0.1-0.5c0.8-0.3 1.5-0.8 2.1-1.4l0.5 0.3c0.5 0.3 1.2 0.2 1.5-0.3s0.2-1.2-0.3-1.5c0 0 0 0 0 0l-0.5-0.3c0.3-0.8 0.5-1.6 0.5-2.5l0.5-0.1C82.1 35.7 82.5 35.2 82.3 34.6 82.3 34.6 82.3 34.6 82.3 34.6L82.3 34.6zM77.4 38.3c-1.2 1.4-3.3 1.5-4.7 0.2s-1.5-3.3-0.2-4.7c1-1.1 2.5-1.4 3.8-0.8 1.7 0.8 2.4 2.7 1.7 4.4C77.8 37.8 77.6 38.1 77.4 38.3z" fill="#ffffff" data-fill-palette-color="accent"></path><path d="M57.7 44.6c1.4-0.3 2.6-0.9 3.7-1.8l0.7 0.6c0.7 0.6 1.8 0.6 2.5-0.2 0.6-0.7 0.6-1.8-0.2-2.5l-0.7-0.6c0.7-1.2 1.2-2.5 1.3-3.9l0.9-0.1c1-0.1 1.7-0.9 1.6-1.9 0 0 0 0 0 0l0 0c-0.1-1-0.9-1.7-1.9-1.6l-0.9 0.1c-0.3-1.4-1-2.6-1.8-3.7l0.6-0.7c0.6-0.7 0.6-1.8-0.2-2.5 0 0 0 0 0 0l0 0c-0.7-0.6-1.8-0.6-2.5 0.2l-0.6 0.7c-1.2-0.7-2.5-1.2-3.9-1.4l-0.1-0.9c-0.1-1-0.9-1.7-1.9-1.6l0 0c-1 0.1-1.7 0.9-1.6 1.9l0.1 0.9c-1.4 0.3-2.6 1-3.7 1.8l-0.7-0.6c-0.7-0.6-1.8-0.6-2.5 0.2s-0.6 1.8 0.2 2.5L47 30c-0.7 1.2-1.2 2.5-1.3 3.9l-0.9 0.1c-1 0.1-1.7 0.9-1.6 1.9 0 0 0 0 0 0l0 0c0.1 1 0.9 1.7 1.9 1.6l0.9-0.1c0.3 1.4 1 2.6 1.8 3.7l-0.6 0.7c-0.6 0.7-0.6 1.8 0.2 2.5 0 0 0 0 0 0l0 0c0.7 0.6 1.8 0.6 2.5-0.2l0.6-0.7c1.2 0.7 2.5 1.2 3.9 1.3l0.1 0.9c0.1 1 0.9 1.7 1.9 1.6l0 0c1-0.1 1.7-0.9 1.6-1.9 0 0 0 0 0 0L57.7 44.6zM52.5 39.6c-2.5-1.6-3.3-4.9-1.7-7.4 1.6-2.5 4.9-3.3 7.4-1.7 2.5 1.6 3.3 4.9 1.7 7.4-0.3 0.5-0.7 0.9-1.1 1.3C57 40.7 54.5 40.9 52.5 39.6z" fill="#ffffff" data-fill-palette-color="accent"></path><path d="M77 108H51c-1.1 0-2 0.9-2 2s0.9 2 2 2h26c1.1 0 2-0.9 2-2S78.1 108 77 108z" fill="#ffffff" data-fill-palette-color="accent"></path><path d="M71 116H57c-1.1 0-2 0.9-2 2s0.9 2 2 2h14c1.1 0 2-0.9 2-2S72.1 116 71 116z" fill="#ffffff" data-fill-palette-color="accent"></path></svg></g></svg></g><g></g></svg></g></svg></g></svg></g><defs></defs></svg><rect width="320" height="360" fill="none" stroke="none" visibility="hidden"></rect></g></svg></g></svg>